# xmcd
#
# Track frame offsets:
#	150
#	12805
#	27245
#	39187
#	52912
#	68675
#	77955
#	93052
#	103779
#	117120
#	131055
#	143170
#	154984
#	167392
#	181670
#	195017
#	209412
#	223432
#
# Disc length: 3173
#
# Revision: 1
# Processed by: cddbd v1.5.1PL0 Copyright (c) Steve Scherf et al.
# Submitted via: CDex 1.51
# Normalized: r0:TDELIM( - )
#
DISCID=e60c6312
DTITLE=Various Artist - Tropical dreams
DYEAR=1998
DGENRE=Jazz
TTITLE0=Carmen Miranda and Tony De Marco - Brazil
TTITLE1=Xavier Cougat and Carmen Castillo - Amor
TTITLE2=Andrews Sisters - Ti Pi Tin
TTITLE3=Jimmy Dorsey and His Orchestra - Besame mucho
TTITLE4=Edmundo Ros and His Rumba Band - Taboo
TTITLE5=Bing Crosby - You belong to my heart
TTITLE6=Glenn Miller - Moonlight cocktail
TTITLE7=Felix Mendelsshon and His Hawaiian Serenaders - When you dream about Hawaii
TTITLE8=Kanui and Lula - Tomi Tomi
TTITLE9=Artie Shaw and His Orchestra - Frenesi
TTITLE10=Harmony Kings Orchestra - Anything for love
TTITLE11=The Lion - I'm going to buy a bungalow
TTITLE12=Codallo's Top Hatters Orchestra - I want to build a bungalow
TTITLE13=King Radio - It's the rythm we want
TTITLE14=Louis Prima - Civilazation (bongo bongo bongo)
TTITLE15=Johnny Mercer - Candy
TTITLE16=Edith Piaf - La vie en rose
TTITLE17=Bing crosby - Sweet Leilani
EXTD=YEAR: 1998
EXTT0=
EXTT1=
EXTT2=
EXTT3=
EXTT4=
EXTT5=
EXTT6=
EXTT7=
EXTT8=
EXTT9=
EXTT10=
EXTT11=
EXTT12=
EXTT13=
EXTT14=
EXTT15=
EXTT16=
EXTT17=
PLAYORDER=
